# AST/ASF file generated using VICON BodyLanguage
# -----------------------------------------------
:version 1.10
:name VICON
:units
  mass 1.0
  length 0.45
  angle deg
:documentation
   .ast/.asf automatically generated from VICON data using
   VICON BodyBuilder and BodyLanguage model FoxedUp or BRILLIANT.MOD
:root
   order TX TY TZ RX RY RZ
   axis XYZ
   position 0 0 0  
   orientation 0 0 0 
:bonedata
  begin
     id 1 
     name lhipjoint
     direction 0.611804 -0.747784 0.257906 
     length 2.29243 
     axis 0 0 0  XYZ
  end
  begin
     id 2 
     name lfemur
     direction 0.34202 -0.939693 0  
     length 7.31159  
     axis 0 0 20  XYZ
    dof rx ry rz
    limits (-160.0 20.0)
           (-70.0 70.0)
           (-60.0 70.0)
  end
  begin
     id 3 
     name ltibia
     direction 0.34202 -0.939693 0   
     length 7.33391   
     axis 0 0 20   XYZ
    dof rx
    limits (-10.0 170.0)
  end
  begin
     id 4 
     name lfoot
     direction 0.122263 -0.335914 0.933924   
     length 1.76083   
     axis -90 7.62852e-016 20   XYZ
    dof rx rz
    limits (-45.0 90.0)
           (-70.0 20.0)
  end
  begin
     id 5 
     name ltoes
     direction 1.53533e-011 -4.2177e-011 1   
     length 0.879206   
     axis -90 7.62852e-016 20   XYZ
    dof rx
    limits (-90.0 20.0)
  end
  begin
     id 6 
     name rhipjoint
     direction -0.646469 -0.721248 0.248754   
     length 2.37677  
     axis 0 0 0  XYZ 
  end
  begin
     id 7 
     name rfemur
     direction -0.34202 -0.939693 0   
     length 7.18623   
     axis 0 0 -20   XYZ
    dof rx ry rz
    limits (-160.0 20.0)
           (-70.0 70.0)
           (-70.0 60.0)
  end
  begin
     id 8 
     name rtibia
     direction -0.34202 -0.939693 0   
     length 7.36567   
     axis 0 0 -20   XYZ
    dof rx
    limits (-10.0 170.0)
 end
 begin
     id 9 
     name rfoot
     direction -0.126681 -0.348054 0.928876   
     length 1.71902  
     axis -90 -7.62852e-016 -20   XYZ
    dof rx rz
    limits (-45.0 90.0)
           (-20.0 70.0)
  end
  begin
     id 10 
     name rtoes
     direction -1.53551e-011 -4.21898e-011 1   
     length 0.857792   
     axis -90 -7.62852e-016 -20   XYZ
    dof rx
    limits (-90.0 20.0)
  end
  begin
     id 11 
     name lowerback
     direction 0.0106509 0.999778 0.0181844   
     length 2.07668   
     axis 0 0 0   XYZ
    dof rx ry rz
    limits (-20.0 45.0)
           (-30.0 30.0)
           (-30.0 30.0)
  end
  begin
     id 12 
     name upperback
     direction -0.00456018 0.999989 -0.000590935   
     length 2.08011   
     axis 0 0 0   XYZ
    dof rx ry rz
    limits (-20.0 45.0)
           (-30.0 30.0)
           (-30.0 30.0)
  end
  begin
     id 13 
     name thorax
     direction -0.00910382 0.999916 -0.00923765   
     length 2.07397   
     axis 0 0 0   XYZ
    dof rx ry rz
    limits (-20.0 45.0)
           (-30.0 30.0)
           (-30.0 30.0)
  end
  begin
     id 14 
     name lowerneck
     direction 0.00171967 0.99778 0.0665733   
     length 1.67556   
     axis 0 0 0   XYZ
    dof rx ry rz
    limits (-20.0 45.0)
           (-30.0 30.0)
           (-30.0 30.0)
  end
  begin
     id 15 
     name upperneck
     direction -0.0143166 0.991302 -0.130828   
     length 1.68462   
     axis 0 0 0   XYZ
    dof rx ry rz
    limits (-20.0 45.0)
           (-30.0 30.0)
           (-30.0 30.0)
  end
  begin
     id 16
     name head
     direction -0.00606378 0.998665 -0.0512995  
     length 1.69269  
     axis 0 0 0   XYZ
    dof rx ry rz
    limits (-20.0 45.0)
           (-30.0 30.0)
           (-30.0 30.0)
  end
  begin
     id 17 
     name lclavicle
     direction 0.9638 0.179341 0.197297  
     length 4.12888  
     axis 0 0 0   XYZ
    dof ry rz
    limits (-20.0 10.0)
           (0.0 20.0)
  end
  begin
     id 18 
     name lhumerus
     direction 1 -4.48972e-011 -2.47351e-027   
     length 5.01834   
     axis -180 -30 -90   XYZ
    dof rx ry rz
    limits (-60.0 90.0)
           (-90.0 90.0)
           (-90.0 90.0)
  end
  begin
     id 19
     name lradius
     direction 1 -4.48965e-011 1.51591e-026   
     length 3.4869   
     axis -180 -30 -90   XYZ
    dof rx
    limits (-10.0 170.0)
  end
  begin
     id 20
     name lwrist
     direction 1 -4.48957e-011 2.70032e-026   
     length 1.74345   
     axis -1.81515e-014 90 90   XYZ
    dof ry
    limits (-180.0 0.0)
 end
  begin
     id 21 
     name lhand
     direction 1 -4.48951e-011 5.40064e-026   
     length 0.76799   
     axis -3.44607e-014 90 90   XYZ
    dof rx rz
    limits (-90.0 90.0)
           (-45.0 45.0)
  end
  begin
     id 22 
     name lfingers
     direction 1 -4.48971e-011 1.08013e-025   
     length 0.619174   
     axis -6.89214e-014 90 90   XYZ
    dof rx
    limits (0.0 90.0)
  end
  begin
     id 23
     name lthumb
     direction 0.707107 -6.34931e-011 0.707107   
     length 0.889013   
     axis -90 45 2.85299e-015   XYZ
    dof rx rz
    limits (-45.0 45.0)
           (-45.0 45.0)
  end
  begin
     id 24 
     name rclavicle
     direction -0.961409 0.252588 0.109054   
     length 4.04305  
     axis 0 0 0   XYZ 
    dof ry rz
    limits (-10.0 20.0)
           (-20.0 0.0)
  end
  begin
     id 25 
     name rhumerus
     direction -1 -4.4897e-011 1.33872e-017  
     length 4.70164   
     axis -180 30 90   XYZ
    dof rx ry rz
    limits (-90.0 60.0)
           (-90.0 90.0)
           (-90.0 90.0)
  end
  begin
     id 26 
     name rradius
     direction -1 -4.48954e-011 1.83844e-026   
     length 3.49911   
     axis -180 30 90   XYZ
    dof rx
    limits (-10.0 170.0)
  end
  begin
     id 27 
     name rwrist
     direction -1 -4.49008e-011 2.70032e-026   
     length 1.74955   
     axis -1.81515e-014 -90 -90   XYZ
    dof ry
    limits (-180.0 0.0)
  end
  begin
     id 28
     name rhand
     direction -1 -4.48916e-011 5.40064e-026   
     length 0.739335   
     axis -3.44607e-014 -90 -90   XYZ
    dof rx rz
    limits (-90.0 90.0)
           (-45.0 45.0)
  end
  begin
     id 29
     name rfingers
     direction -1 -4.48987e-011 1.08013e-025   
     length 0.596071   
     axis -6.89214e-014 -90 -90   XYZ
    dof rx
    limits (0.0 90.0)
  end
  begin
     id 30
     name rthumb
     direction -0.707107 -6.34935e-011 0.707107   
     length 0.855843   
     axis -90 -45 -2.85299e-015   XYZ
    dof rx rz
    limits (-45.0 45.0)
           (-45.0 45.0)
  end
:hierarchy
  begin
    root lhipjoint rhipjoint lowerback
    lhipjoint lfemur
    lfemur ltibia
    ltibia lfoot
    lfoot ltoes
    rhipjoint rfemur
    rfemur rtibia
    rtibia rfoot
    rfoot rtoes
    lowerback upperback
    upperback thorax
    thorax lowerneck lclavicle rclavicle
    lowerneck upperneck
    upperneck head
    lclavicle lhumerus
    lhumerus lradius
    lradius lwrist
    lwrist lhand lthumb
    lhand lfingers
    rclavicle rhumerus
    rhumerus rradius
    rradius rwrist
    rwrist rhand rthumb
    rhand rfingers
  end

#!OML:ASF I:\salsa\salsa 7_09\Patient 1\Session 1\dancermale.ASF
:FULLY-SPECIFIED
:DEGREES
997
root 6.69276 16.9897 3.64433 178.906 -78.9854 542.432
lowerback -2.35772 -4.29309 2.04956
upperback 0.120898 -5.77288 -0.768971
thorax 1.15958 -2.87139 -2.10749
lowerneck -17.2929 17.8388 0.638936
upperneck 10.0386 -49.58 -8.37468
head 221.851 -120.897 -367.028
rclavicle 4.39066e-014 1.39149e-015
rhumerus -58.0823 14.2701 -97.1756
rradius 100.174
rwrist -0.362437
rhand -35.2684 -4.74751
rfingers 7.12502
rthumb -8.40377 -34.5603
lclavicle 4.39066e-014 1.39149e-015
lhumerus -20.9431 -17.3973 107.108
lradius 80.8194
lwrist 59.6014
lhand -17.8459 41.8679
lfingers 7.12502
lthumb 8.41909 791.68
rfemur -22.2163 2.96234 18.2521
rtibia 25.5715
rfoot -9.4841 -14.2892
rtoes 0.743438
lfemur -15.4572 1.33667 -20.1041
ltibia 61.5302
lfoot -10.1411 -0.555808
ltoes 1.67883
998
root 6.56951 16.949 3.53144 175.192 -78.12 545.85
lowerback -1.82677 -4.00929 2.6812
upperback 0.273952 -5.3995 -0.655664
thorax 0.991649 -2.68187 -2.29574
lowerneck -17.6594 17.6291 0.884225
upperneck 10.0325 -49.9481 -8.42539
head 222.053 -120.298 -366.972
rclavicle 5.31749e-015 -1.19271e-015
rhumerus -57.1687 13.9821 -97.3987
rradius 100.291
rwrist -0.0188046
rhand -35.5915 -4.54358
rfingers 7.12502
rthumb -8.71557 -34.3436
lclavicle 5.31749e-015 -1.19271e-015
lhumerus -21.8142 -14.9371 104.792
lradius 80.586
lwrist 58.9401
lhand -15.985 42.4111
lfingers 7.12502
lthumb 10.2146 792.143
rfemur -22.0409 2.95081 19.7823
rtibia 26.7456
rfoot -9.89269 -13.5481
rtoes 2.72062
lfemur -19.1464 2.81268 -19.0325
ltibia 68.4507
lfoot -6.37443 -1.38513
ltoes 11.0267
999
root 6.36586 16.935 3.32897 165.511 -78.3583 555.264
lowerback -2.69175 -4.09749 3.53335
upperback 0.848512 -5.59156 -0.0912497
thorax 2.03137 -2.74518 -2.29228
lowerneck -18.0564 17.3316 1.14783
upperneck 10.1444 -50.623 -8.56948
head 222.5 -119.476 -367.08
rclavicle -2.26366e-014 6.16232e-015
rhumerus -56.104 13.6742 -97.7598
rradius 100.344
rwrist 0.523823
rhand -36.0062 -4.63212
rfingers 7.12502
rthumb -9.11582 -34.4151
lclavicle -2.26366e-014 6.16232e-015
lhumerus -22.557 -12.9048 102.06
lradius 80.7101
lwrist 58.5933
lhand -15.8272 42.2322
lfingers 7.12502
lthumb 10.3669 791.957
rfemur -20.1592 3.54744 22.8016
rtibia 26.4006
rfoot -10.641 -14.4509
rtoes 5.98731
lfemur -21.8293 3.56131 -16.2239
ltibia 73.5223
lfoot -4.79823 -1.90198
ltoes 7.09599
1000
root 6.21589 16.8966 3.21363 162.048 -76.4714 558.484
lowerback -2.5586 -3.42945 4.7248
upperback 1.08958 -4.75224 0.118666
thorax 2.18235 -2.30555 -2.70976
lowerneck -18.28 16.9984 1.40063
upperneck 10.591 -51.809 -8.98318
head 223.527 -118.24 -367.645
rclavicle -7.66874e-015 -5.56597e-015
rhumerus -55.0907 13.4135 -98.2305
rradius 100.423
rwrist 0.906034
rhand -36.5162 -4.96769
rfingers 7.12502
rthumb -9.60788 -34.7286
lclavicle -7.66874e-015 -5.56597e-015
lhumerus -23.1834 -11.2633 99.0256
lradius 80.9251
lwrist 58.7678
lhand -15.5466 43.2807
lfingers 7.12502
lthumb 10.6376 792.991
rfemur -20.1585 4.29358 24.9893
rtibia 28.1785
rfoot -11.6591 -13.6129
rtoes 7.0614
lfemur -24.7 6.16742 -14.7012
ltibia 77.733
lfoot -5.00919 -1.78748
ltoes 7.19319
1001
root 6.08883 16.8495 3.10953 162.39 -74.687 558.049
lowerback -2.29697 -2.74825 5.13809
upperback 1.16286 -3.84877 0.172992
thorax 2.16074 -1.84923 -2.84301
lowerneck -18.4584 16.7415 1.55837
upperneck 10.9788 -52.7696 -9.3395
head 224.444 -117.281 -368.211
rclavicle 3.93594e-014 -1.19271e-015
rhumerus -53.9321 13.4151 -98.7787
rradius 100.297
rwrist 1.26136
rhand -37.0862 -4.84409
rfingers 7.12502
rthumb -10.1578 -34.5789
lclavicle 3.93594e-014 -1.19271e-015
lhumerus -23.6353 -9.72247 95.7571
lradius 81.1268
lwrist 58.9845
lhand -15.1122 43.0669
lfingers 7.12502
lthumb 11.0566 792.756
rfemur -20.8144 4.71875 26.1461
rtibia 30.4373
rfoot -12.792 -12.5852
rtoes 6.23118
lfemur -27.7616 8.80924 -14.2236
ltibia 81.0061
lfoot -5.56619 0.0854515
ltoes 8.5789
1002
root 5.97627 16.8117 3.00519 163.493 -73.0703 556.559
lowerback -1.60324 -2.14209 4.98683
upperback 1.27802 -3.00016 0.179679
thorax 1.96973 -1.432 -2.69837
lowerneck -18.7093 16.5693 1.69171
upperneck 10.9548 -53.0388 -9.31401
head 224.623 -117.011 -368.313
rclavicle -4.82053e-015 -1.78906e-014
rhumerus -52.5364 13.7005 -99.4085
rradius 99.9232
rwrist 1.64741
rhand -37.3737 -4.36548
rfingers 7.12502
rthumb -10.4352 -34.0865
lclavicle -4.82053e-015 -1.78906e-014
lhumerus -23.9164 -8.30544 92.3316
lradius 81.3515
lwrist 59.1357
lhand -14.8281 43.5974
lfingers 7.12502
lthumb 11.3305 793.271
rfemur -21.0429 4.98038 26.8926
rtibia 32.4295
rfoot -13.8803 -11.6265
rtoes 4.36994
lfemur -30.2802 11.2036 -14.1082
ltibia 82.6064
lfoot -5.70752 1.65271
ltoes 10.686
1003
root 5.85641 16.7788 2.89652 164.416 -71.6541 555.306
lowerback -1.09177 -1.59587 4.67655
upperback 1.37276 -2.2396 0.1792
thorax 1.85343 -1.05867 -2.49161
lowerneck -18.9411 16.3812 1.91116
upperneck 10.9155 -53.2998 -9.26269
head 224.766 -116.705 -368.385
rclavicle 6.63754e-014 -2.0276e-014
rhumerus -51.1257 14.1173 -100.17
rradius 99.4771
rwrist 1.97638
rhand -37.3092 -3.98443
rfingers 7.12502
rthumb -10.3729 -33.7086
lclavicle 6.63754e-014 -2.0276e-014
lhumerus -24.0908 -7.10673 88.8018
lradius 81.5409
lwrist 59.4922
lhand -14.4973 43.0479
lfingers 7.12502
lthumb 11.6495 792.704
rfemur -20.9746 5.25407 27.5374
rtibia 33.945
rfoot -14.8718 -10.8607
rtoes 3.48858
lfemur -32.5816 13.3112 -14.011
ltibia 82.6889
lfoot -5.89677 2.75717
ltoes 12.5278
1004
root 5.72786 16.7441 2.7886 165.746 -70.4716 553.563
lowerback -0.674118 -1.09407 4.04829
upperback 1.50533 -1.54097 0.132271
thorax 1.82238 -0.717522 -2.16553
lowerneck -19.1902 16.1382 2.09895
upperneck 11.1076 -53.9212 -9.45555
head 225.3 -116.019 -368.656
rclavicle 5.59765e-014 -6.36111e-015
rhumerus -49.7771 14.7467 -100.981
rradius 99.0567
rwrist 2.43862
rhand -37.4042 -3.96734
rfingers 7.12502
rthumb -10.4645 -33.6869
lclavicle 5.59765e-014 -6.36111e-015
lhumerus -23.9982 -5.98803 85.2729
lradius 81.6448
lwrist 60.4887
lhand -14.2482 42.8324
lfingers 7.12502
lthumb 11.8898 792.475
rfemur -20.6554 5.74104 27.8012
rtibia 35.2009
rfoot -15.8461 -10.3991
rtoes 4.22293
lfemur -34.5928 15.249 -14.1616
ltibia 81.8555
lfoot -6.04099 3.24125
ltoes 12.6471
1005
root 5.60344 16.7176 2.68329 166.185 -69.3705 552.933
lowerback -0.434697 -0.614965 3.61767
upperback 1.62018 -0.89173 0.248328
thorax 1.85668 -0.399423 -1.79014
lowerneck -19.445 15.8495 2.22507
upperneck 11.4453 -54.7135 -9.81258
head 225.953 -115.2 -368.923
rclavicle 8.26199e-015 -1.19271e-015
rhumerus -48.5085 15.535 -101.738
rradius 98.6843
rwrist 2.96656
rhand -37.6499 -3.91625
rfingers 7.12502
rthumb -10.7016 -33.6237
lclavicle 8.26199e-015 -1.19271e-015
lhumerus -23.5516 -4.65506 81.8969
lradius 81.5429
lwrist 61.6053
lhand -13.8787 42.2273
lfingers 7.12502
lthumb 12.2461 791.849
rfemur -20.4546 6.64416 28.3894
rtibia 36.3783
rfoot -16.7562 -10.3906
rtoes 4.97376
lfemur -36.5859 17.1658 -13.9144
ltibia 80.0955
lfoot -6.00341 3.31936
ltoes 13.4479
1006
root 5.48085 16.6983 2.58312 166.509 -68.3778 552.381
lowerback -0.130268 -0.154261 3.05803
upperback 1.72545 -0.266546 0.443659
thorax 1.83182 -0.0979293 -1.26317
lowerneck -19.6706 15.5985 2.2864
upperneck 11.6323 -55.2255 -10.0131
head 226.239 -114.769 -368.969
rclavicle 2.00276e-014 -6.36111e-015
rhumerus -47.4014 16.31 -102.441
rradius 98.4337
rwrist 3.22651
rhand -37.6035 -3.49171
rfingers 7.12502
rthumb -10.6568 -33.2015
lclavicle 2.00276e-014 -6.36111e-015
lhumerus -22.8112 -3.05108 78.8082
lradius 81.0621
lwrist 61.9963
lhand -12.3007 42.7931
lfingers 7.12502
lthumb 13.7673 792.318
rfemur -20.0862 7.70972 28.9493
rtibia 37.349
rfoot -17.537 -10.567
rtoes 5.41934
lfemur -38.0761 18.9183 -13.595
ltibia 77.2543
lfoot -5.73461 3.46754
ltoes 14.9736
1007
root 5.35378 16.6909 2.48699 166.474 -67.4667 552.307
lowerback 0.0745523 0.310308 2.58318
upperback 1.75892 0.356758 0.737962
thorax 1.77302 0.201836 -0.685751
lowerneck -19.8967 15.4014 2.18884
upperneck 11.6305 -55.4424 -10.013
head 226.14 -114.855 -368.821
rclavicle 2.7687e-014 -2.38542e-015
rhumerus -46.5763 17.0122 -103.137
rradius 98.3123
rwrist 3.35584
rhand -37.4265 -3.05035
rfingers 7.12502
rthumb -10.4861 -32.7688
lclavicle 2.7687e-014 -2.38542e-015
lhumerus -21.7526 -1.52555 76.1353
lradius 80.1614
lwrist 61.899
lhand -10.724 43.3357
lfingers 7.12502
lthumb 15.2864 792.751
rfemur -19.6031 8.60937 29.6218
rtibia 38.004
rfoot -18.1521 -10.6579
rtoes 5.79867
lfemur -39.1297 20.4653 -13.0723
ltibia 73.5223
lfoot -5.25751 4.38788
ltoes 16.4273
1008
root 5.23049 16.6818 2.39517 167.199 -66.7196 551.355
lowerback 0.470998 0.794027 1.65113
upperback 1.71473 1.0165 0.981436
thorax 1.50348 0.51325 0.0887263
lowerneck -20.1158 15.2018 1.93492
upperneck 11.668 -55.685 -10.0587
head 226.079 -115.039 -368.721
rclavicle -5.23052e-015 -2.38542e-015
rhumerus -46.0828 17.6537 -103.832
rradius 98.238
rwrist 3.59093
rhand -37.2295 -2.56449
rfingers 7.12502
rthumb -10.296 -32.2925
lclavicle -5.23052e-015 -2.38542e-015
lhumerus -20.3928 -0.257154 73.9348
lradius 78.7693
lwrist 61.5358
lhand -9.606 43.4056
lfingers 7.12502
lthumb 16.363 792.735
rfemur -19.0409 9.28816 29.8083
rtibia 38.5209
rfoot -18.6757 -10.7377
rtoes 5.35192
lfemur -39.644 21.7909 -12.8984
ltibia 69.0768
lfoot -4.54414 5.39141
ltoes 18.4236
1009
root 4.09953 16.7426 2.42128 197.628 -100.302 518.27
lowerback -9.92834 -9.71318 0.685398
upperback 5.15497 -13.1922 -0.277305
thorax 10.8382 -6.28156 -3.1591
lowerneck -20.3418 14.9405 1.62205
upperneck 11.6872 -55.8961 -10.0973
head 225.844 -115.342 -368.451
rclavicle -8.13402e-014 6.16232e-015
rhumerus -45.6792 18.2834 -104.454
rradius 98.158
rwrist 3.69024
rhand -37.0743 -2.16758
rfingers 7.12502
rthumb -10.1464 -31.9029
lclavicle -8.13402e-014 6.16232e-015
lhumerus -18.5974 0.782797 72.2057
lradius 76.944
lwrist 61.2205
lhand -8.47107 43.3751
lfingers 7.12502
lthumb 17.4555 792.611
rfemur -0.498499 -23.237 20.6204
rtibia 22.1582
rfoot -19.0956 -11.1003
rtoes 5.34217
lfemur -35.6883 -9.99402 -20.3261
ltibia 61.3514
lfoot -4.76314 -1.42842
ltoes 20.3276
1010
root 3.96139 16.7377 2.37016 198.802 -100.227 517.343
lowerback -9.90501 -9.36765 0.720684
upperback 4.94677 -12.7458 -0.0203424
thorax 10.6586 -6.08202 -2.80262
lowerneck -20.5069 14.5883 1.39644
upperneck 11.7083 -56.0923 -10.1207
head 225.266 -115.768 -367.815
rclavicle -1.15233e-014 5.36719e-015
rhumerus -45.2705 18.8699 -105.067
rradius 98.0094
rwrist 3.62479
rhand -37.1183 -2.05723
rfingers 7.12502
rthumb -10.1887 -31.7905
lclavicle -1.15233e-014 5.36719e-015
lhumerus -16.3701 1.72231 70.888
lradius 74.9851
lwrist 61.6381
lhand -7.6996 43.9309
lfingers 7.12502
lthumb 18.1979 793.1
rfemur -0.699233 -23.2166 21.0382
rtibia 22.7796
rfoot -19.5926 -11.1496
rtoes 5.50011
lfemur -36.1313 -8.60725 -20.5875
ltibia 56.0326
lfoot -2.9464 -1.6672
ltoes 23.8252
